<svg width="1290" height="299" xmlns="http://www.w3.org/2000/svg" stroke="null">
 <title stroke="null">Party flag</title>

 <g stroke="null">
  <title stroke="null">Layer 1</title>
  <path transform="rotate(-135 938.32 77.0425)" stroke="#000" fill="#38acd4" d="m907.8201,108.04244l30.49996,-61.99988l30.49996,61.99988l-60.99992,0z" id="svg_10" stroke-width="2"/>
  <ellipse fill="none" cx="769.0221" cy="-35.18279" id="svg_22" rx="288.21056" ry="124.09065" stroke="#000" stroke-width="3"/>
  <path transform="rotate(-155 545.028 75.5373)" fill="#f6961e" stroke="#000" d="m514.52779,106.53726l30.49996,-61.99989l30.49997,61.99989l-60.99993,0z" id="svg_39" stroke-width="2"/>
  <ellipse fill="none" cx="1216.01628" cy="-22.50586" id="svg_23" rx="294.21493" ry="160.11698" stroke="#000" stroke-width="3"/>
  <path transform="rotate(147 481.427 136.2)" fill="#f15524" stroke="#000" d="m450.92721,167.2l30.49996,-61.99989l30.49996,61.99989l-60.99992,0z" id="svg_35" stroke-width="2"/>
  <path transform="rotate(134 543.688 85.1607)" fill="#ffd602" stroke="#000" d="m513.18767,116.16065l30.49996,-61.99988l30.49996,61.99988l-60.99992,0z" id="svg_36" stroke-width="2"/>
  <path fill="#b0bc36" stroke="#000" d="m560.68751,46.65839l30.49996,-61.99988l30.49997,61.99988l-60.99993,0z" id="svg_37" stroke-width="2" transform="rotate(116 591.188 15.6585)"/>
  <path fill="#38acd4" stroke="#000" d="m443.68794,57.15838l30.49996,-61.99989l30.49996,61.99989l-60.99992,0z" id="svg_38" stroke-width="2" transform="rotate(-133 474.188 26.1584)"/>
  <path transform="rotate(-167 622.232 102.72)" fill="#f15524" stroke="#000" d="m591.73218,133.71951l30.49996,-61.99988l30.49996,61.99988l-60.99992,0z" id="svg_1" stroke-width="2"/>
  <path transform="rotate(173 850.968 114.043)" fill="#38acd4" stroke="#000" d="m820.46848,145.04291l30.49996,-61.99988l30.49996,61.99988l-60.99992,0z" id="svg_2" stroke-width="2"/>
  <path transform="rotate(-175 699.143 116.54)" fill="#ffd602" stroke="#000" d="m668.64351,147.54003l30.49996,-61.99988l30.49996,61.99988l-60.99992,0z" id="svg_3" stroke-width="2"/>
  <path transform="rotate(-180 774.057 119.537)" fill="#b0bc36" stroke="#000" d="m743.55715,150.53657l30.49996,-61.99988l30.49996,61.99988l-60.99992,0z" id="svg_4" stroke-width="2"/>
  <path transform="rotate(165 926.881 100.222)" fill="#f6961e" stroke="#000" d="m896.38096,131.22238l30.49996,-61.99988l30.49996,61.99988l-60.99992,0z" id="svg_5" stroke-width="2"/>
  <path transform="rotate(132 1068.22 22.3122)" fill="#ffd602" stroke="#000" d="m1037.71802,53.31221l30.49996,-61.99988l30.49996,61.99988l-60.99992,0z" id="svg_6" stroke-width="2"/>
  <path transform="rotate(-152 1010.79 123.196)" fill="#f6961e" stroke="#000" d="m980.29119,154.19594l30.49996,-61.99988l30.49996,61.99988l-60.99992,0z" id="svg_12" stroke-width="2"/>
  <path transform="rotate(154 1001.3 72.7541)" fill="#f15524" stroke="#000" d="m970.79517,103.75405l30.49996,-61.99988l30.49996,61.99988l-60.99992,0z" id="svg_7" stroke-width="2"/>
  <path transform="rotate(-175 1169.79 166.314)" fill="#ffd602" stroke="#000" d="m1139.29083,197.31423l30.49996,-61.99988l30.49996,61.99988l-60.99992,0z" id="svg_8" stroke-width="2"/>
  <path transform="rotate(177 1248.71 166.809)" fill="#b0bc36" stroke="#000" d="m1218.20504,197.80905l30.49996,-61.99988l30.49996,61.99988l-60.99992,0z" id="svg_9" stroke-width="2"/>
  <path transform="rotate(-167 1089.38 153.872)" fill="#f15524" stroke="#000" d="m1058.87547,184.8722l30.49996,-61.99988l30.49996,61.99988l-60.99992,0z" id="svg_11" stroke-width="2"/>
  <path transform="rotate(-115 894.785 8.70621)" stroke="#000" fill="#b0bc36" d="m864.28463,39.70612l30.49996,-61.99988l30.49996,61.99988l-60.99992,0z" id="svg_13" stroke-width="2"/>
  <g id="svg_14">
   <ellipse fill="none" opacity="NaN" cx="36.00096" cy="-48.66576" id="svg_21" rx="537.07925" ry="262.52755" stroke="#000" stroke-width="3"/>
   <path transform="rotate(155 412.436 173.317)" fill="#f6961e" stroke="#000" d="m381.93631,204.31743l30.49996,-61.99989l30.49996,61.99989l-60.99992,0z" id="svg_29" stroke-width="2"/>
   <path transform="rotate(-180 36.5 245)" fill="#f6961e" stroke="#000" d="m6,275.99989l30.49996,-61.99989l30.49996,61.99989l-60.99992,0z" id="svg_30" stroke-width="2"/>
   <path transform="rotate(175 110.589 242.718)" fill="#f15524" stroke="#000" d="m80.08863,273.71743l30.49996,-61.99989l30.49996,61.99989l-60.99992,0z" id="svg_31" stroke-width="2"/>
   <path transform="rotate(173 185.129 235.152)" fill="#ffd602" stroke="#000" d="m154.62887,266.15174l30.49996,-61.99989l30.49996,61.99989l-60.99992,0z" id="svg_32" stroke-width="2"/>
   <path transform="rotate(168 262.278 220.663)" fill="#b0bc36" stroke="#000" d="m231.7785,251.66317l30.49996,-61.99989l30.49996,61.99989l-60.99992,0z" id="svg_33" stroke-width="2"/>
   <path transform="rotate(162 337.23 201.562)" fill="#38acd4" stroke="#000" d="m306.73053,232.56233l30.49996,-61.99989l30.49996,61.99989l-60.99992,0z" id="svg_34" stroke-width="2"/>
  </g>
 </g>
</svg>